<?xml version="1.0" encoding="utf-8"?>
<!-- Generator: Adobe Illustrator 19.1.0, SVG Export Plug-In . SVG Version: 6.00 Build 0)  -->
<svg version="1.1" id="Layer_1" xmlns="http://www.w3.org/2000/svg" xmlns:xlink="http://www.w3.org/1999/xlink" x="0px" y="0px"
	 viewBox="-290 382.4 29.8 29.6" style="enable-background:new -290 382.4 29.8 29.6;" xml:space="preserve">
<style type="text/css">
	.st0{fill:none;stroke:#555555;stroke-miterlimit:10;}
	.st1{fill:none;stroke:#565656;stroke-miterlimit:10;}
	.st2{clip-path:url(#SVGID_2_);fill:#FFFFFF;fill-opacity:0;}
	.st3{fill:none;stroke:#565656;stroke-width:4;stroke-miterlimit:10;}
	.st4{clip-path:url(#SVGID_4_);fill:#FFFFFF;fill-opacity:0;}
	.st5{clip-path:url(#SVGID_6_);fill:none;stroke:#565656;stroke-width:2;stroke-miterlimit:10;}
	.st6{clip-path:url(#SVGID_8_);fill:#FFFFFF;fill-opacity:0;}
	.st7{clip-path:url(#SVGID_10_);fill:#FFFFFF;fill-opacity:0;}
	.st8{clip-path:url(#SVGID_12_);fill:none;stroke:#565656;stroke-width:2;stroke-miterlimit:10;}
	.st9{clip-path:url(#SVGID_14_);fill:none;stroke:#565656;stroke-width:2;stroke-miterlimit:10;}
	.st10{clip-path:url(#SVGID_16_);fill:none;stroke:#565656;stroke-width:2;stroke-miterlimit:10;}
	.st11{clip-path:url(#SVGID_18_);fill:#010101;fill-opacity:0;}
	.st12{clip-path:url(#SVGID_20_);fill:none;stroke:#565656;stroke-width:2;stroke-miterlimit:10;}
	.st13{fill:none;stroke:#565656;stroke-linecap:square;stroke-miterlimit:10;}
	.st14{clip-path:url(#SVGID_22_);fill:#565656;}
	.st15{clip-path:url(#SVGID_24_);fill:none;stroke:#565656;stroke-width:2;stroke-miterlimit:10;}
	.st16{clip-path:url(#SVGID_26_);fill:none;stroke:#565656;stroke-width:2;stroke-miterlimit:10;}
	.st17{clip-path:url(#SVGID_28_);fill:none;stroke:#565656;stroke-width:2;stroke-miterlimit:10;}
	.st18{fill:#686969;}
	.st19{clip-path:url(#SVGID_30_);fill:#D8D9D8;fill-opacity:0;}
	.st20{clip-path:url(#SVGID_32_);fill:none;stroke:#565656;stroke-width:2;stroke-miterlimit:10;}
	.st21{fill:none;stroke:#565656;stroke-linecap:square;stroke-miterlimit:10;stroke-dasharray:1,3,1,3;}
	.st22{clip-path:url(#SVGID_34_);fill:none;stroke:#565656;stroke-width:2;stroke-miterlimit:10;}
	.st23{fill:#555555;}
</style>
<circle class="st0" cx="-275.1" cy="397.2" r="12"/>
<circle class="st1" cx="-21.2" cy="477.3" r="12"/>
<g>
	<g>
		<g>
			<defs>
				<circle id="SVGID_1_" cx="60.3" cy="573.2" r="10"/>
			</defs>
			<clipPath id="SVGID_2_">
				<use xlink:href="#SVGID_1_"  style="overflow:visible;"/>
			</clipPath>
			<rect x="45.3" y="558.2" class="st2" width="30" height="30"/>
		</g>
	</g>
</g>
<circle class="st3" cx="60.3" cy="573.2" r="10"/>
<g>
	<g>
		<g>
			<defs>
				<circle id="SVGID_3_" cx="60.4" cy="501.3" r="6"/>
			</defs>
			<clipPath id="SVGID_4_">
				<use xlink:href="#SVGID_3_"  style="overflow:visible;"/>
			</clipPath>
			<rect x="49.4" y="490.3" class="st4" width="22" height="22"/>
		</g>
	</g>
</g>
<circle class="st1" cx="60.4" cy="501.3" r="6"/>
<g>
	<g>
		<g>
			<defs>
				
					<rect id="SVGID_5_" x="50.5" y="491.2" transform="matrix(-0.7071 -0.7071 0.7071 -0.7071 -251.0983 898.3305)" width="20" height="20"/>
			</defs>
			<clipPath id="SVGID_6_">
				<use xlink:href="#SVGID_5_"  style="overflow:visible;"/>
			</clipPath>
			
				<rect x="50.5" y="491.3" transform="matrix(-0.7071 -0.7071 0.7071 -0.7071 -251.1983 898.572)" class="st5" width="20" height="20"/>
		</g>
	</g>
</g>
<g>
	<g>
		<g>
			<defs>
				<circle id="SVGID_7_" cx="60.7" cy="537.1" r="6"/>
			</defs>
			<clipPath id="SVGID_8_">
				<use xlink:href="#SVGID_7_"  style="overflow:visible;"/>
			</clipPath>
			<rect x="49.7" y="526.1" class="st6" width="22" height="22"/>
		</g>
	</g>
</g>
<circle class="st1" cx="60.7" cy="537.1" r="6"/>
<g>
	<g>
		<g>
			<defs>
				<circle id="SVGID_9_" cx="60.7" cy="537.1" r="4"/>
			</defs>
			<clipPath id="SVGID_10_">
				<use xlink:href="#SVGID_9_"  style="overflow:visible;"/>
			</clipPath>
			<rect x="51.7" y="528.1" class="st7" width="18" height="18"/>
		</g>
	</g>
</g>
<circle class="st1" cx="60.7" cy="537.1" r="4"/>
<g>
	<g>
		<g>
			<defs>
				
					<rect id="SVGID_11_" x="50.8" y="527.2" transform="matrix(-0.7071 -0.7071 0.7071 -0.7071 -276.0566 960.1005)" width="20" height="20"/>
			</defs>
			<clipPath id="SVGID_12_">
				<use xlink:href="#SVGID_11_"  style="overflow:visible;"/>
			</clipPath>
			
				<rect x="50.8" y="527.2" transform="matrix(-0.7071 -0.7071 0.7071 -0.7071 -276.0566 960.1005)" class="st8" width="20" height="20"/>
		</g>
	</g>
</g>
<g>
	<g>
		<g>
			<defs>
				
					<rect id="SVGID_13_" x="51.5" y="391.3" transform="matrix(-0.7071 -0.7071 0.7071 -0.7071 -178.7393 728.5607)" width="20" height="20"/>
			</defs>
			<clipPath id="SVGID_14_">
				<use xlink:href="#SVGID_13_"  style="overflow:visible;"/>
			</clipPath>
			
				<rect x="51.5" y="391.3" transform="matrix(-0.7071 -0.7071 0.7071 -0.7071 -178.7393 728.5607)" class="st9" width="20" height="20"/>
		</g>
	</g>
</g>
<g>
	<g>
		<g>
			<defs>
				<path id="SVGID_15_" d="M48.3,322.6c0-1.7,1.3-3,3-3h18c1.7,0,3,1.3,3,3v18c0,1.7-1.3,3-3,3h-18c-1.7,0-3-1.3-3-3V322.6z"/>
			</defs>
			<clipPath id="SVGID_16_">
				<use xlink:href="#SVGID_15_"  style="overflow:visible;"/>
			</clipPath>
			<path class="st10" d="M48.3,322.6c0-1.7,1.3-3,3-3h18c1.7,0,3,1.3,3,3v18c0,1.7-1.3,3-3,3h-18c-1.7,0-3-1.3-3-3V322.6z"/>
		</g>
	</g>
</g>
<g>
	<g>
		<g>
			<defs>
				<rect id="SVGID_17_" x="53.3" y="325.7" width="14" height="12"/>
			</defs>
			<clipPath id="SVGID_18_">
				<use xlink:href="#SVGID_17_"  style="overflow:visible;"/>
			</clipPath>
			<rect x="53.3" y="325.7" class="st11" width="14" height="12"/>
		</g>
	</g>
</g>
<g>
	<g>
		<g>
			<defs>
				<rect id="SVGID_19_" x="53.3" y="325.7" width="14" height="12"/>
			</defs>
			<clipPath id="SVGID_20_">
				<use xlink:href="#SVGID_19_"  style="overflow:visible;"/>
			</clipPath>
			<rect x="53.3" y="325.7" class="st12" width="14" height="12"/>
		</g>
	</g>
</g>
<line class="st13" x1="53.8" y1="334.2" x2="66.8" y2="334.2"/>
<line class="st13" x1="56.6" y1="337.2" x2="56.6" y2="326.2"/>
<g>
	<g>
		<g>
			<defs>
				<rect id="SVGID_21_" x="53.3" y="325.7" width="14" height="5"/>
			</defs>
			<clipPath id="SVGID_22_">
				<use xlink:href="#SVGID_21_"  style="overflow:visible;"/>
			</clipPath>
			<rect x="53.3" y="325.7" class="st14" width="14" height="5"/>
		</g>
	</g>
</g>
<g>
	<g>
		<g>
			<defs>
				<rect id="SVGID_23_" x="53.3" y="325.7" width="14" height="5"/>
			</defs>
			<clipPath id="SVGID_24_">
				<use xlink:href="#SVGID_23_"  style="overflow:visible;"/>
			</clipPath>
			<rect x="53.3" y="325.7" class="st15" width="14" height="5"/>
		</g>
	</g>
</g>
<g>
	<g>
		<g>
			<defs>
				<path id="SVGID_25_" d="M49.1,359.1c0-1.7,1.3-3,3-3h18c1.7,0,3,1.3,3,3v18c0,1.7-1.3,3-3,3h-18c-1.7,0-3-1.3-3-3V359.1z"/>
			</defs>
			<clipPath id="SVGID_26_">
				<use xlink:href="#SVGID_25_"  style="overflow:visible;"/>
			</clipPath>
			<path class="st16" d="M49.1,359.1c0-1.7,1.3-3,3-3h18c1.7,0,3,1.3,3,3v18c0,1.7-1.3,3-3,3h-18c-1.7,0-3-1.3-3-3V359.1z"/>
		</g>
	</g>
</g>
<path class="st1" d="M55,365.9c0-1,0.9-1.9,1.3-2.4c0.4-0.5,1.8-1.3,1.8-1.3h9c0,0-3.2,2.4-3.2,3.7c0,1.6,2.2,3.2,2.2,3.2
	s1,1.2,1,2.2c0,0.7-1,2.7-1,2.7H55.5c0,0,2.6-2.1,2.5-3.5c0-0.6-1.1-1.5-1.8-2.4C56,367.7,55,366.7,55,365.9z"/>
<line class="st13" x1="57.9" y1="364.7" x2="62.2" y2="364.7"/>
<line class="st13" x1="57.9" y1="366.7" x2="62.2" y2="366.7"/>
<line class="st13" x1="60" y1="371.7" x2="64.4" y2="371.7"/>
<line class="st13" x1="60" y1="369.7" x2="64.4" y2="369.7"/>
<g>
	<g>
		<g>
			<defs>
				
					<rect id="SVGID_27_" x="-149.6" y="513.7" transform="matrix(-0.7071 -0.7071 0.7071 -0.7071 -608.6128 795.2512)" width="20" height="20"/>
			</defs>
			<clipPath id="SVGID_28_">
				<use xlink:href="#SVGID_27_"  style="overflow:visible;"/>
			</clipPath>
			
				<rect x="-149.6" y="513.7" transform="matrix(-0.7071 -0.7071 0.7071 -0.7071 -608.6128 795.2512)" class="st17" width="20" height="20"/>
		</g>
	</g>
</g>
<g>
	<path class="st18" d="M-144,527.5l3.4-4.7l-3.3-4.4h1.9l2.6,3.5l2.4-3.5h1.6l-3.1,4.6l3.4,4.4h-1.9l-2.7-3.6l-2.6,3.6L-144,527.5
		L-144,527.5z"/>
</g>
<g>
	<g>
		<g>
			<defs>
				
					<rect id="SVGID_29_" x="50.8" y="457.4" transform="matrix(-0.7071 -0.7071 0.7071 -0.7071 -226.6858 840.9818)" width="20" height="20"/>
			</defs>
			<clipPath id="SVGID_30_">
				<use xlink:href="#SVGID_29_"  style="overflow:visible;"/>
			</clipPath>
			
				<rect x="50.8" y="457.5" transform="matrix(-0.7071 -0.7071 0.7071 -0.7071 -226.8566 841.0526)" class="st19" width="20" height="20"/>
		</g>
	</g>
</g>
<g>
	<g>
		<g>
			<defs>
				
					<rect id="SVGID_31_" x="50.8" y="457.4" transform="matrix(-0.7071 -0.7071 0.7071 -0.7071 -226.6858 840.9818)" width="20" height="20"/>
			</defs>
			<clipPath id="SVGID_32_">
				<use xlink:href="#SVGID_31_"  style="overflow:visible;"/>
			</clipPath>
			
				<rect x="50.8" y="457.5" transform="matrix(-0.7071 -0.7071 0.7071 -0.7071 -226.8566 841.0526)" class="st20" width="20" height="20"/>
		</g>
	</g>
</g>
<g>
	<path class="st18" d="M60.2,472.3v-4.6h-4.6v-1.3h4.6v-4.6h1.3v4.6h4.6v1.3h-4.6v4.6H60.2z"/>
</g>
<line class="st13" x1="63.2" y1="601.2" x2="63.2" y2="619.8"/>
<line class="st13" x1="68.2" y1="601.2" x2="63.2" y2="601.2"/>
<line class="st13" x1="68.2" y1="620.6" x2="63.2" y2="620.6"/>
<line class="st21" x1="62.9" y1="611.1" x2="49.7" y2="620.2"/>
<path class="st18" d="M57.8,652l4.9-4.9c0.1-0.1,0.2-0.1,0.4-0.1c0.1,0,0.3,0,0.4,0.1c0.1,0.1,0.1,0.2,0.1,0.4v4.9
	c0,0.1,0,0.3-0.1,0.4s-0.2,0.1-0.4,0.1h-4.9c-0.1,0-0.3,0-0.4-0.1c-0.1-0.1-0.1-0.2-0.1-0.4C57.6,652.2,57.7,652.1,57.8,652z"/>
<g>
	<g>
		<g>
			<defs>
				<path id="SVGID_33_" d="M48.3,289c0-1.7,1.3-3,3-3h18c1.7,0,3,1.3,3,3v18c0,1.7-1.3,3-3,3h-18c-1.7,0-3-1.3-3-3V289z"/>
			</defs>
			<clipPath id="SVGID_34_">
				<use xlink:href="#SVGID_33_"  style="overflow:visible;"/>
			</clipPath>
			<path class="st22" d="M48.3,289c0-1.7,1.3-3,3-3h18c1.7,0,3,1.3,3,3v18c0,1.7-1.3,3-3,3h-18c-1.7,0-3-1.3-3-3V289z"/>
		</g>
	</g>
</g>
<path class="st18" d="M66.2,302.2c0,0.7-0.2,1.2-0.6,1.6c-0.4,0.4-0.9,0.6-1.6,0.6h-7.3c-0.7,0-1.2-0.2-1.6-0.6
	c-0.4-0.4-0.6-0.9-0.6-1.6c0-0.3,0-0.6,0-0.9s0.1-0.6,0.1-0.9s0.1-0.6,0.2-0.9c0.1-0.3,0.2-0.6,0.4-0.8c0.2-0.3,0.3-0.5,0.5-0.7
	s0.4-0.3,0.7-0.4s0.6-0.2,0.9-0.2c0.1,0,0.2,0.1,0.4,0.2s0.4,0.3,0.6,0.4c0.2,0.1,0.5,0.3,0.9,0.4s0.7,0.2,1.1,0.2
	c0.4,0,0.7-0.1,1.1-0.2c0.4-0.1,0.7-0.3,0.9-0.4s0.4-0.3,0.6-0.4s0.3-0.2,0.4-0.2c0.3,0,0.7,0.1,0.9,0.2c0.3,0.1,0.5,0.3,0.7,0.4
	c0.2,0.2,0.4,0.4,0.5,0.7c0.2,0.3,0.3,0.5,0.4,0.8c0.1,0.3,0.2,0.6,0.2,0.9s0.1,0.6,0.1,0.9C66.1,301.7,66.2,301.9,66.2,302.2z
	 M62.5,292.5c0.6,0.6,0.9,1.4,0.9,2.3s-0.3,1.6-0.9,2.3c-0.6,0.7-1.4,0.9-2.3,0.9c-0.9,0-1.6-0.3-2.3-0.9c-0.6-0.6-0.9-1.4-0.9-2.3
	s0.3-1.6,0.9-2.3c0.6-0.6,1.4-0.9,2.3-0.9C61.1,291.6,61.9,291.9,62.5,292.5z"/>
<path class="st23" d="M-269.2,391.9H-281c-0.6,0-1.2,0.5-1.2,1.2v8.2c0,0.6,0.5,1.2,1.2,1.2h11.8c0.6,0,1.2-0.5,1.2-1.2v-8.2
	C-268,392.4-268.6,391.9-269.2,391.9z M-269.2,393.1l-5.4,5.2c-0.2,0.2-0.6,0.2-0.9,0l-5.4-5.2H-269.2z M-281,401.3v-6.6l4.6,4.5
	c0.7,0.7,1.8,0.7,2.5,0l4.6-4.5v6.6H-281z"/>
</svg>
