<?xml version="1.0" encoding="utf-8"?>
<!-- Generator: Adobe Illustrator 19.1.0, SVG Export Plug-In . SVG Version: 6.00 Build 0)  -->
<svg version="1.1" id="Layer_1" xmlns="http://www.w3.org/2000/svg" xmlns:xlink="http://www.w3.org/1999/xlink" x="0px" y="0px"
	 viewBox="-290 382.4 29.8 29.6" style="enable-background:new -290 382.4 29.8 29.6;" xml:space="preserve">
<style type="text/css">
	.st0{clip-path:url(#SVGID_2_);fill:#FFFFFF;fill-opacity:0;}
	.st1{fill:none;stroke:#555555;stroke-miterlimit:10;}
	.st2{fill:none;stroke:#565656;stroke-miterlimit:10;}
	.st3{clip-path:url(#SVGID_4_);fill:#FFFFFF;fill-opacity:0;}
	.st4{fill:none;stroke:#565656;stroke-width:4;stroke-miterlimit:10;}
	.st5{clip-path:url(#SVGID_6_);fill:#FFFFFF;fill-opacity:0;}
	.st6{clip-path:url(#SVGID_8_);fill:none;stroke:#565656;stroke-width:2;stroke-miterlimit:10;}
	.st7{clip-path:url(#SVGID_10_);fill:#FFFFFF;fill-opacity:0;}
	.st8{clip-path:url(#SVGID_12_);fill:#FFFFFF;fill-opacity:0;}
	.st9{clip-path:url(#SVGID_14_);fill:none;stroke:#565656;stroke-width:2;stroke-miterlimit:10;}
	.st10{clip-path:url(#SVGID_16_);fill:none;stroke:#565656;stroke-width:2;stroke-miterlimit:10;}
	.st11{clip-path:url(#SVGID_18_);fill:none;stroke:#565656;stroke-width:2;stroke-miterlimit:10;}
	.st12{clip-path:url(#SVGID_20_);fill:#010101;fill-opacity:0;}
	.st13{clip-path:url(#SVGID_22_);fill:none;stroke:#565656;stroke-width:2;stroke-miterlimit:10;}
	.st14{fill:none;stroke:#565656;stroke-linecap:square;stroke-miterlimit:10;}
	.st15{clip-path:url(#SVGID_24_);fill:#565656;}
	.st16{clip-path:url(#SVGID_26_);fill:none;stroke:#565656;stroke-width:2;stroke-miterlimit:10;}
	.st17{clip-path:url(#SVGID_28_);fill:none;stroke:#565656;stroke-width:2;stroke-miterlimit:10;}
	.st18{clip-path:url(#SVGID_30_);fill:none;stroke:#565656;stroke-width:2;stroke-miterlimit:10;}
	.st19{fill:#686969;}
	.st20{clip-path:url(#SVGID_32_);fill:#D8D9D8;fill-opacity:0;}
	.st21{clip-path:url(#SVGID_34_);fill:none;stroke:#565656;stroke-width:2;stroke-miterlimit:10;}
	.st22{fill:none;stroke:#565656;stroke-linecap:square;stroke-miterlimit:10;stroke-dasharray:1,3,1,3;}
	.st23{fill:#555555;}
	.st24{clip-path:url(#SVGID_36_);fill:#FFFFFF;fill-opacity:0;}
	.st25{clip-path:url(#SVGID_38_);fill:none;stroke:#565656;stroke-width:2;stroke-miterlimit:10;}
	.st26{clip-path:url(#SVGID_40_);fill:#FFFFFF;fill-opacity:0;}
	.st27{clip-path:url(#SVGID_42_);fill:#FFFFFF;fill-opacity:0;}
	.st28{clip-path:url(#SVGID_44_);fill:none;stroke:#565656;stroke-width:2;stroke-miterlimit:10;}
	.st29{clip-path:url(#SVGID_46_);fill:none;stroke:#565656;stroke-width:2;stroke-miterlimit:10;}
	.st30{clip-path:url(#SVGID_48_);fill:#D8D9D8;fill-opacity:0;}
	.st31{clip-path:url(#SVGID_50_);fill:none;stroke:#565656;stroke-width:2;stroke-miterlimit:10;}
	.st32{fill:#ED621B;}
	.st33{fill:none;stroke:#4E9626;stroke-miterlimit:10;}
	.st34{fill:#5EA332;}
	.st35{fill:none;stroke:#ED621B;stroke-miterlimit:10;}
</style>
<g>
	<g>
		<g>
			<defs>
				<circle id="SVGID_1_" cx="-617.9" cy="778.6" r="10"/>
			</defs>
			<clipPath id="SVGID_2_">
				<use xlink:href="#SVGID_1_"  style="overflow:visible;"/>
			</clipPath>
			<rect x="-632.9" y="763.6" class="st0" width="30" height="30"/>
		</g>
	</g>
</g>
<circle class="st1" cx="-617.9" cy="778.6" r="10"/>
<circle class="st1" cx="-617.9" cy="778.6" r="12"/>
<circle class="st2" cx="-617.9" cy="749.3" r="12"/>
<g>
	<g>
		<g>
			<defs>
				<circle id="SVGID_3_" cx="-483.6" cy="926.3" r="10"/>
			</defs>
			<clipPath id="SVGID_4_">
				<use xlink:href="#SVGID_3_"  style="overflow:visible;"/>
			</clipPath>
			<rect x="-498.6" y="911.3" class="st3" width="30" height="30"/>
		</g>
	</g>
</g>
<circle class="st4" cx="-483.6" cy="926.3" r="10"/>
<g>
	<g>
		<g>
			<defs>
				<circle id="SVGID_5_" cx="-483.5" cy="854.4" r="6"/>
			</defs>
			<clipPath id="SVGID_6_">
				<use xlink:href="#SVGID_5_"  style="overflow:visible;"/>
			</clipPath>
			<rect x="-494.5" y="843.4" class="st5" width="22" height="22"/>
		</g>
	</g>
</g>
<circle class="st2" cx="-483.5" cy="854.4" r="6"/>
<g>
	<g>
		<g>
			<defs>
				
					<rect id="SVGID_7_" x="-493.4" y="844.3" transform="matrix(-0.7071 -0.7071 0.7071 -0.7071 -1429.2731 1116.5145)" width="20" height="20"/>
			</defs>
			<clipPath id="SVGID_8_">
				<use xlink:href="#SVGID_7_"  style="overflow:visible;"/>
			</clipPath>
			
				<rect x="-493.4" y="844.4" transform="matrix(-0.7071 -0.7071 0.7071 -0.7071 -1429.373 1116.756)" class="st6" width="20" height="20"/>
		</g>
	</g>
</g>
<g>
	<g>
		<g>
			<defs>
				<circle id="SVGID_9_" cx="-483.2" cy="890.2" r="6"/>
			</defs>
			<clipPath id="SVGID_10_">
				<use xlink:href="#SVGID_9_"  style="overflow:visible;"/>
			</clipPath>
			<rect x="-494.2" y="879.2" class="st7" width="22" height="22"/>
		</g>
	</g>
</g>
<circle class="st2" cx="-483.2" cy="890.2" r="6"/>
<g>
	<g>
		<g>
			<defs>
				<circle id="SVGID_11_" cx="-483.2" cy="890.2" r="4"/>
			</defs>
			<clipPath id="SVGID_12_">
				<use xlink:href="#SVGID_11_"  style="overflow:visible;"/>
			</clipPath>
			<rect x="-492.2" y="881.2" class="st8" width="18" height="18"/>
		</g>
	</g>
</g>
<circle class="st2" cx="-483.2" cy="890.2" r="4"/>
<g>
	<g>
		<g>
			<defs>
				
					<rect id="SVGID_13_" x="-493.1" y="880.3" transform="matrix(-0.7071 -0.7071 0.7071 -0.7071 -1454.2314 1178.2845)" width="20" height="20"/>
			</defs>
			<clipPath id="SVGID_14_">
				<use xlink:href="#SVGID_13_"  style="overflow:visible;"/>
			</clipPath>
			
				<rect x="-493.1" y="880.3" transform="matrix(-0.7071 -0.7071 0.7071 -0.7071 -1454.2314 1178.2845)" class="st9" width="20" height="20"/>
		</g>
	</g>
</g>
<g>
	<g>
		<g>
			<defs>
				
					<rect id="SVGID_15_" x="-492.4" y="744.4" transform="matrix(-0.7071 -0.7071 0.7071 -0.7071 -1356.9142 946.7447)" width="20" height="20"/>
			</defs>
			<clipPath id="SVGID_16_">
				<use xlink:href="#SVGID_15_"  style="overflow:visible;"/>
			</clipPath>
			
				<rect x="-492.4" y="744.4" transform="matrix(-0.7071 -0.7071 0.7071 -0.7071 -1356.9142 946.7447)" class="st10" width="20" height="20"/>
		</g>
	</g>
</g>
<g>
	<g>
		<g>
			<defs>
				<path id="SVGID_17_" d="M-495.6,675.7c0-1.7,1.3-3,3-3h18c1.7,0,3,1.3,3,3v18c0,1.7-1.3,3-3,3h-18c-1.7,0-3-1.3-3-3V675.7z"/>
			</defs>
			<clipPath id="SVGID_18_">
				<use xlink:href="#SVGID_17_"  style="overflow:visible;"/>
			</clipPath>
			<path class="st11" d="M-495.6,675.7c0-1.7,1.3-3,3-3h18c1.7,0,3,1.3,3,3v18c0,1.7-1.3,3-3,3h-18c-1.7,0-3-1.3-3-3V675.7z"/>
		</g>
	</g>
</g>
<g>
	<g>
		<g>
			<defs>
				<rect id="SVGID_19_" x="-490.6" y="678.8" width="14" height="12"/>
			</defs>
			<clipPath id="SVGID_20_">
				<use xlink:href="#SVGID_19_"  style="overflow:visible;"/>
			</clipPath>
			<rect x="-490.6" y="678.8" class="st12" width="14" height="12"/>
		</g>
	</g>
</g>
<g>
	<g>
		<g>
			<defs>
				<rect id="SVGID_21_" x="-490.6" y="678.8" width="14" height="12"/>
			</defs>
			<clipPath id="SVGID_22_">
				<use xlink:href="#SVGID_21_"  style="overflow:visible;"/>
			</clipPath>
			<rect x="-490.6" y="678.8" class="st13" width="14" height="12"/>
		</g>
	</g>
</g>
<line class="st14" x1="-490.1" y1="687.3" x2="-477.1" y2="687.3"/>
<line class="st14" x1="-487.3" y1="690.3" x2="-487.3" y2="679.3"/>
<g>
	<g>
		<g>
			<defs>
				<rect id="SVGID_23_" x="-490.6" y="678.8" width="14" height="5"/>
			</defs>
			<clipPath id="SVGID_24_">
				<use xlink:href="#SVGID_23_"  style="overflow:visible;"/>
			</clipPath>
			<rect x="-490.6" y="678.8" class="st15" width="14" height="5"/>
		</g>
	</g>
</g>
<g>
	<g>
		<g>
			<defs>
				<rect id="SVGID_25_" x="-490.6" y="678.8" width="14" height="5"/>
			</defs>
			<clipPath id="SVGID_26_">
				<use xlink:href="#SVGID_25_"  style="overflow:visible;"/>
			</clipPath>
			<rect x="-490.6" y="678.8" class="st16" width="14" height="5"/>
		</g>
	</g>
</g>
<g>
	<g>
		<g>
			<defs>
				<path id="SVGID_27_" d="M-494.8,712.2c0-1.7,1.3-3,3-3h18c1.7,0,3,1.3,3,3v18c0,1.7-1.3,3-3,3h-18c-1.7,0-3-1.3-3-3V712.2z"/>
			</defs>
			<clipPath id="SVGID_28_">
				<use xlink:href="#SVGID_27_"  style="overflow:visible;"/>
			</clipPath>
			<path class="st17" d="M-494.8,712.2c0-1.7,1.3-3,3-3h18c1.7,0,3,1.3,3,3v18c0,1.7-1.3,3-3,3h-18c-1.7,0-3-1.3-3-3V712.2z"/>
		</g>
	</g>
</g>
<path class="st2" d="M-488.9,719c0-1,0.9-1.9,1.3-2.4c0.4-0.5,1.8-1.3,1.8-1.3h9c0,0-3.2,2.4-3.2,3.7c0,1.6,2.2,3.2,2.2,3.2
	s1,1.2,1,2.2c0,0.7-1,2.7-1,2.7h-10.6c0,0,2.6-2.1,2.5-3.5c0-0.6-1.1-1.5-1.8-2.4C-487.9,720.8-488.9,719.8-488.9,719z"/>
<line class="st14" x1="-486" y1="717.8" x2="-481.7" y2="717.8"/>
<line class="st14" x1="-486" y1="719.8" x2="-481.7" y2="719.8"/>
<line class="st14" x1="-483.9" y1="724.8" x2="-479.5" y2="724.8"/>
<line class="st14" x1="-483.9" y1="722.8" x2="-479.5" y2="722.8"/>
<path class="st2" d="M-579.2,744.5c0-1,0.9-1.9,1.3-2.4s1.8-1.3,1.8-1.3h9c0,0-3.2,2.4-3.2,3.7c0,1.6,2.2,3.2,2.2,3.2s1,1.2,1,2.2
	c0,0.7-1,2.7-1,2.7h-10.6c0,0,2.6-2.1,2.5-3.5c0-0.6-1.1-1.5-1.8-2.4C-578.2,746.3-579.2,745.3-579.2,744.5z"/>
<g>
	<g>
		<g>
			<defs>
				
					<rect id="SVGID_29_" x="-492.4" y="776.3" transform="matrix(-0.7071 -0.7071 0.7071 -0.7071 -1379.4952 1001.1412)" width="20" height="20"/>
			</defs>
			<clipPath id="SVGID_30_">
				<use xlink:href="#SVGID_29_"  style="overflow:visible;"/>
			</clipPath>
			
				<rect x="-492.4" y="776.3" transform="matrix(-0.7071 -0.7071 0.7071 -0.7071 -1379.4952 1001.1412)" class="st18" width="20" height="20"/>
		</g>
	</g>
</g>
<g>
	<path class="st19" d="M-486.8,790.1l3.4-4.7l-3.3-4.4h1.9l2.6,3.5l2.4-3.5h1.6l-3.1,4.6l3.4,4.4h-1.9l-2.7-3.6l-2.6,3.6
		L-486.8,790.1L-486.8,790.1z"/>
</g>
<g>
	<g>
		<g>
			<defs>
				
					<rect id="SVGID_31_" x="-493.1" y="810.5" transform="matrix(-0.7071 -0.7071 0.7071 -0.7071 -1404.8607 1059.1658)" width="20" height="20"/>
			</defs>
			<clipPath id="SVGID_32_">
				<use xlink:href="#SVGID_31_"  style="overflow:visible;"/>
			</clipPath>
			
				<rect x="-493.1" y="810.6" transform="matrix(-0.7071 -0.7071 0.7071 -0.7071 -1405.0314 1059.2366)" class="st20" width="20" height="20"/>
		</g>
	</g>
</g>
<g>
	<g>
		<g>
			<defs>
				
					<rect id="SVGID_33_" x="-493.1" y="810.5" transform="matrix(-0.7071 -0.7071 0.7071 -0.7071 -1404.8607 1059.1658)" width="20" height="20"/>
			</defs>
			<clipPath id="SVGID_34_">
				<use xlink:href="#SVGID_33_"  style="overflow:visible;"/>
			</clipPath>
			
				<rect x="-493.1" y="810.6" transform="matrix(-0.7071 -0.7071 0.7071 -0.7071 -1405.0314 1059.2366)" class="st21" width="20" height="20"/>
		</g>
	</g>
</g>
<g>
	<path class="st19" d="M-483.7,825.4v-4.6h-4.6v-1.3h4.6v-4.6h1.3v4.6h4.6v1.3h-4.6v4.6H-483.7z"/>
</g>
<line class="st14" x1="-480.7" y1="954.3" x2="-480.7" y2="972.9"/>
<line class="st14" x1="-475.7" y1="954.3" x2="-480.7" y2="954.3"/>
<line class="st14" x1="-475.7" y1="973.7" x2="-480.7" y2="973.7"/>
<line class="st22" x1="-481" y1="964.2" x2="-494.2" y2="973.3"/>
<path class="st19" d="M-486.1,1005.1l4.9-4.9c0.1-0.1,0.2-0.1,0.4-0.1c0.1,0,0.3,0,0.4,0.1c0.1,0.1,0.1,0.2,0.1,0.4v4.9
	c0,0.1,0,0.3-0.1,0.4c-0.1,0.1-0.2,0.1-0.4,0.1h-4.9c-0.1,0-0.3,0-0.4-0.1s-0.1-0.2-0.1-0.4
	C-486.3,1005.3-486.2,1005.2-486.1,1005.1z"/>
<path class="st23" d="M-612.8,812.3c0,0.7-0.2,1.2-0.6,1.6c-0.4,0.4-0.9,0.6-1.6,0.6h-7.3c-0.7,0-1.2-0.2-1.6-0.6
	c-0.4-0.4-0.6-0.9-0.6-1.6c0-0.3,0-0.6,0-0.9c0-0.3,0.1-0.6,0.1-0.9s0.1-0.6,0.2-0.9c0.1-0.3,0.2-0.6,0.4-0.8
	c0.2-0.3,0.3-0.5,0.5-0.7c0.2-0.2,0.4-0.3,0.7-0.4c0.3-0.1,0.6-0.2,0.9-0.2c0.1,0,0.2,0.1,0.4,0.2s0.4,0.3,0.6,0.4
	c0.2,0.1,0.5,0.3,0.9,0.4s0.7,0.2,1.1,0.2c0.4,0,0.7-0.1,1.1-0.2s0.7-0.3,0.9-0.4c0.2-0.1,0.4-0.3,0.6-0.4s0.3-0.2,0.4-0.2
	c0.3,0,0.7,0.1,0.9,0.2c0.3,0.1,0.5,0.3,0.7,0.4c0.2,0.2,0.4,0.4,0.5,0.7c0.2,0.3,0.3,0.5,0.4,0.8c0.1,0.3,0.2,0.6,0.2,0.9
	s0.1,0.6,0.1,0.9C-612.9,811.8-612.8,812-612.8,812.3z M-616.5,802.6c0.6,0.6,0.9,1.4,0.9,2.3c0,0.9-0.3,1.6-0.9,2.3
	c-0.6,0.7-1.4,0.9-2.3,0.9s-1.6-0.3-2.3-0.9c-0.6-0.6-0.9-1.4-0.9-2.3c0-0.9,0.3-1.6,0.9-2.3c0.6-0.6,1.4-0.9,2.3-0.9
	C-617.9,801.7-617.1,802-616.5,802.6z"/>
<path class="st1" d="M-609.8,820h-17.5c-1.7,0-3-1.3-3-3v-17.8c0-1.6,1.3-3,3-3h17.5c1.6,0,3,1.4,3,3V817
	C-606.8,818.7-608.2,820-609.8,820z"/>
<path class="st1" d="M-550,721.3h-17.5c-1.6,0-3-1.4-3-3v-17.8c0-1.6,1.4-3,3-3h17.5c1.7,0,3,1.4,3,3v17.8
	C-547,720-548.4,721.3-550,721.3z"/>
<path class="st1" d="M-610.1,849.6h-17.5c-1.7,0-3-1.3-3-3v-17.8c0-1.6,1.3-3,3-3h17.5c1.6,0,3,1.4,3,3v17.8
	C-607.1,848.3-608.4,849.6-610.1,849.6z"/>
<g>
	<rect x="-625.4" y="831.5" class="st1" width="13.1" height="12.5"/>
	<rect x="-625.6" y="831.5" class="st23" width="13.4" height="5.2"/>
	<line class="st1" x1="-625" y1="840.2" x2="-612.8" y2="840.2"/>
	<line class="st1" x1="-621.4" y1="831.5" x2="-621.4" y2="843.6"/>
</g>
<g>
	<line class="st14" x1="-576.9" y1="743.8" x2="-572.8" y2="743.8"/>
	<line class="st14" x1="-576.9" y1="746.1" x2="-572.8" y2="746.1"/>
	<line class="st14" x1="-574.9" y1="748.5" x2="-570.8" y2="748.5"/>
	<line class="st14" x1="-574.9" y1="750.8" x2="-570.8" y2="750.8"/>
</g>
<circle class="st4" cx="-529.5" cy="891.8" r="10"/>
<g>
	<g>
		<g>
			<g>
				<defs>
					<circle id="SVGID_35_" cx="-527.9" cy="817.4" r="6"/>
				</defs>
				<clipPath id="SVGID_36_">
					<use xlink:href="#SVGID_35_"  style="overflow:visible;"/>
				</clipPath>
				<rect x="-538.9" y="806.4" class="st24" width="22" height="22"/>
			</g>
		</g>
	</g>
</g>
<circle class="st2" cx="-527.9" cy="817.4" r="6"/>
<g>
	<g>
		<g>
			<g>
				<defs>
					<rect id="SVGID_37_" x="-537.9" y="807.5" width="20" height="20"/>
				</defs>
				<clipPath id="SVGID_38_">
					<use xlink:href="#SVGID_37_"  style="overflow:visible;"/>
				</clipPath>
				
					<rect x="-537.8" y="807.4" transform="matrix(0.7071 0.7071 -0.7071 0.7071 423.4117 612.6352)" class="st25" width="20" height="20"/>
			</g>
		</g>
	</g>
</g>
<g>
	<g>
		<g>
			<g>
				<defs>
					<circle id="SVGID_39_" cx="-527.6" cy="853.2" r="6"/>
				</defs>
				<clipPath id="SVGID_40_">
					<use xlink:href="#SVGID_39_"  style="overflow:visible;"/>
				</clipPath>
				<rect x="-538.6" y="842.2" class="st26" width="22" height="22"/>
			</g>
		</g>
	</g>
</g>
<circle class="st2" cx="-527.6" cy="853.2" r="6"/>
<g>
	<g>
		<g>
			<g>
				<defs>
					<circle id="SVGID_41_" cx="-527.6" cy="853.2" r="4"/>
				</defs>
				<clipPath id="SVGID_42_">
					<use xlink:href="#SVGID_41_"  style="overflow:visible;"/>
				</clipPath>
				<rect x="-536.6" y="844.2" class="st27" width="18" height="18"/>
			</g>
		</g>
	</g>
</g>
<circle class="st2" cx="-527.6" cy="853.2" r="4"/>
<g>
	<g>
		<g>
			<g>
				<defs>
					<rect id="SVGID_43_" x="-537.5" y="843.3" width="20" height="20"/>
				</defs>
				<clipPath id="SVGID_44_">
					<use xlink:href="#SVGID_43_"  style="overflow:visible;"/>
				</clipPath>
				
					<rect x="-537.5" y="843.4" transform="matrix(0.7071 0.7071 -0.7071 0.7071 448.9112 622.937)" class="st28" width="20" height="20"/>
			</g>
		</g>
	</g>
</g>
<g>
	<g>
		<g>
			<g>
				<defs>
					<rect id="SVGID_45_" x="-536.8" y="739.3" width="20" height="20"/>
				</defs>
				<clipPath id="SVGID_46_">
					<use xlink:href="#SVGID_45_"  style="overflow:visible;"/>
				</clipPath>
				
					<rect x="-536.8" y="739.3" transform="matrix(0.7071 0.7071 -0.7071 0.7071 375.5074 591.9499)" class="st29" width="20" height="20"/>
			</g>
		</g>
	</g>
</g>
<g>
	<path class="st19" d="M-531.2,753.1l3.4-4.7l-3.3-4.4h1.9l2.6,3.5l2.4-3.5h1.6l-3.1,4.6l3.4,4.4h-1.9l-2.7-3.6l-2.6,3.6
		L-531.2,753.1L-531.2,753.1z"/>
</g>
<g>
	<g>
		<g>
			<g>
				<defs>
					<rect id="SVGID_47_" x="-537.6" y="773.6" width="20" height="20"/>
				</defs>
				<clipPath id="SVGID_48_">
					<use xlink:href="#SVGID_47_"  style="overflow:visible;"/>
				</clipPath>
				
					<rect x="-537.6" y="773.6" transform="matrix(0.7071 0.7071 -0.7071 0.7071 399.5564 602.5638)" class="st30" width="20" height="20"/>
			</g>
		</g>
	</g>
</g>
<g>
	<g>
		<g>
			<g>
				<defs>
					<rect id="SVGID_49_" x="-537.6" y="773.6" width="20" height="20"/>
				</defs>
				<clipPath id="SVGID_50_">
					<use xlink:href="#SVGID_49_"  style="overflow:visible;"/>
				</clipPath>
				
					<rect x="-537.6" y="773.6" transform="matrix(0.7071 0.7071 -0.7071 0.7071 399.5564 602.5638)" class="st31" width="20" height="20"/>
			</g>
		</g>
	</g>
</g>
<g>
	<path class="st19" d="M-528.1,788.4v-4.6h-4.6v-1.3h4.6v-4.6h1.3v4.6h4.6v1.3h-4.6v4.6H-528.1z"/>
</g>
<g>
	<line class="st14" x1="-526.6" y1="914.2" x2="-526.6" y2="932.7"/>
	<line class="st14" x1="-521.6" y1="914.2" x2="-526.6" y2="914.2"/>
	<line class="st14" x1="-521.6" y1="933.5" x2="-526.6" y2="933.5"/>
	<line class="st22" x1="-526.9" y1="924" x2="-540.1" y2="933.2"/>
</g>
<path class="st19" d="M-530.5,968.1l4.9-4.9c0.1-0.1,0.2-0.1,0.4-0.1c0.1,0,0.3,0,0.4,0.1c0.1,0.1,0.1,0.2,0.1,0.4v4.9
	c0,0.1,0,0.3-0.1,0.4c-0.1,0.1-0.2,0.1-0.4,0.1h-4.9c-0.1,0-0.3,0-0.4-0.1s-0.1-0.2-0.1-0.4C-530.7,968.3-530.6,968.2-530.5,968.1z"
	/>
<path class="st23" d="M-621.9,985.6l4.9-4.9c0.1-0.1,0.2-0.1,0.4-0.1c0.1,0,0.3,0,0.4,0.1s0.1,0.2,0.1,0.4v4.9c0,0.1,0,0.3-0.1,0.4
	c-0.1,0.1-0.2,0.1-0.4,0.1h-4.9c-0.1,0-0.3,0-0.4-0.1c-0.1-0.1-0.1-0.2-0.1-0.4C-622.1,985.9-622,985.7-621.9,985.6z"/>
<rect x="-628.6" y="919.3" transform="matrix(-0.7071 -0.7071 0.7071 -0.7071 -1713.8695 1147.3597)" class="st1" width="18.6" height="18.6"/>
<rect x="-628.4" y="889.5" transform="matrix(-0.7071 -0.7071 0.7071 -0.7071 -1692.4316 1096.6047)" class="st1" width="18.6" height="18.6"/>
<line class="st1" x1="-613.5" y1="898.8" x2="-624.8" y2="898.8"/>
<line class="st1" x1="-619.1" y1="904.5" x2="-619.1" y2="893.1"/>
<rect x="-628.1" y="859.8" transform="matrix(-0.7071 -0.7071 0.7071 -0.7071 -1670.944 1046.1409)" class="st1" width="18.6" height="18.6"/>
<line class="st1" x1="-614.9" y1="865.1" x2="-622.9" y2="873.1"/>
<line class="st1" x1="-614.9" y1="873.1" x2="-622.9" y2="865.1"/>
<rect x="-574.4" y="770.3" transform="matrix(-0.7071 -0.7071 0.7071 -0.7071 -1515.9381 931.2763)" class="st1" width="18.6" height="18.6"/>
<line class="st1" x1="-561.1" y1="775.6" x2="-569.1" y2="783.6"/>
<line class="st1" x1="-561.1" y1="783.6" x2="-569.1" y2="775.6"/>
<rect x="-768.6" y="759.3" transform="matrix(-0.7071 -0.7071 0.7071 -0.7071 -1839.7289 775.2311)" class="st1" width="18.6" height="18.6"/>
<line class="st1" x1="-755.4" y1="764.6" x2="-763.4" y2="772.6"/>
<line class="st1" x1="-755.4" y1="772.6" x2="-763.4" y2="764.6"/>
<circle class="st1" cx="-619.4" cy="928.6" r="5.4"/>
<circle class="st1" cx="-619.4" cy="928.6" r="3.4"/>
<circle class="st4" cx="-619.3" cy="958" r="10.4"/>
<g>
	<path class="st32" d="M-683.4,787.9l5.9-8.1l-5.7-7.6h3.3l4.5,6l4.1-6h2.8l-5.3,7.9l5.9,7.6h-3.3l-4.7-6.2l-4.5,6.2h-2.9
		L-683.4,787.9L-683.4,787.9z"/>
</g>
<circle class="st33" cx="-729.2" cy="863.7" r="25"/>
<path class="st34" d="M-714.2,854.9v18.2c0,0.7-0.3,1.4-0.8,1.9s-1.2,0.8-1.9,0.8h-24.6c-0.7,0-1.4-0.3-1.9-0.8s-0.8-1.2-0.8-1.9
	v-18.2c0-0.7,0.3-1.4,0.8-1.9s1.2-0.8,1.9-0.8h24.6c0.7,0,1.4,0.3,1.9,0.8C-714.4,853.6-714.2,854.2-714.2,854.9z M-716.3,855.6
	c0,0,0-0.1,0-0.2c0-0.1,0-0.2,0-0.2c0-0.1,0-0.1,0-0.2c0-0.1,0-0.2-0.1-0.2c0,0-0.1-0.1-0.1-0.2c0-0.1-0.1-0.1-0.2-0.1s-0.1,0-0.2,0
	h-24.6c-0.1,0-0.3,0.1-0.4,0.2s-0.2,0.2-0.2,0.4c0,1.9,0.8,3.5,2.5,4.8c2.2,1.7,4.4,3.5,6.7,5.3c0.1,0.1,0.3,0.2,0.6,0.5
	c0.3,0.3,0.6,0.5,0.8,0.6c0.2,0.1,0.4,0.3,0.7,0.5c0.3,0.2,0.6,0.4,0.8,0.5c0.3,0.1,0.5,0.2,0.7,0.2l0,0l0,0c0.2,0,0.5-0.1,0.7-0.2
	c0.3-0.1,0.5-0.3,0.8-0.5c0.3-0.2,0.6-0.4,0.7-0.5c0.2-0.1,0.4-0.4,0.8-0.6c0.3-0.3,0.5-0.4,0.6-0.5c2.3-1.8,4.6-3.6,6.7-5.3
	c0.6-0.5,1.2-1.1,1.7-1.9C-716.6,857-716.3,856.2-716.3,855.6z M-716.3,873.2v-12.9c-0.4,0.4-0.7,0.8-1.2,1.1
	c-3,2.3-5.4,4.2-7.1,5.7c-0.6,0.5-1,0.9-1.4,1.1c-0.4,0.3-0.8,0.5-1.4,0.8c-0.6,0.3-1.2,0.4-1.7,0.4l0,0l0,0c-0.5,0-1.1-0.1-1.7-0.4
	c-0.6-0.3-1.1-0.5-1.4-0.8c-0.4-0.3-0.8-0.6-1.4-1.1c-1.8-1.5-4.1-3.4-7.1-5.7c-0.4-0.3-0.8-0.7-1.2-1.1v12.9c0,0.1,0.1,0.3,0.2,0.4
	s0.2,0.2,0.4,0.2h24.6c0.1,0,0.3-0.1,0.4-0.2C-716.4,873.4-716.3,873.3-716.3,873.2z"/>
<rect x="-693.1" y="763" transform="matrix(0.7071 0.7071 -0.7071 0.7071 353.6779 706.3384)" class="st35" width="34.7" height="34.1"/>
<rect x="-284.4" y="387.9" transform="matrix(-0.7071 -0.7071 0.7071 -0.7071 -750.4879 483.5377)" class="st35" width="18.6" height="18.6"/>
<line class="st35" x1="-271.1" y1="393.2" x2="-279.1" y2="401.2"/>
<line class="st35" x1="-271.1" y1="401.2" x2="-279.1" y2="393.2"/>
</svg>
