<?xml version="1.0" encoding="utf-8"?>
<!-- Generator: Adobe Illustrator 19.1.0, SVG Export Plug-In . SVG Version: 6.00 Build 0)  -->
<svg version="1.1" id="Layer_1" xmlns="http://www.w3.org/2000/svg" xmlns:xlink="http://www.w3.org/1999/xlink" x="0px" y="0px"
	 viewBox="-290 382.4 29.8 29.6" style="enable-background:new -290 382.4 29.8 29.6;" xml:space="preserve">
<style type="text/css">
	.st0{clip-path:url(#SVGID_2_);fill:#FFFFFF;fill-opacity:0;}
	.st1{fill:none;stroke:#555555;stroke-miterlimit:10;}
	.st2{fill:none;stroke:#565656;stroke-miterlimit:10;}
	.st3{clip-path:url(#SVGID_4_);fill:#FFFFFF;fill-opacity:0;}
	.st4{fill:none;stroke:#565656;stroke-width:4;stroke-miterlimit:10;}
	.st5{clip-path:url(#SVGID_6_);fill:#FFFFFF;fill-opacity:0;}
	.st6{clip-path:url(#SVGID_8_);fill:none;stroke:#565656;stroke-width:2;stroke-miterlimit:10;}
	.st7{clip-path:url(#SVGID_10_);fill:#FFFFFF;fill-opacity:0;}
	.st8{clip-path:url(#SVGID_12_);fill:#FFFFFF;fill-opacity:0;}
	.st9{clip-path:url(#SVGID_14_);fill:none;stroke:#565656;stroke-width:2;stroke-miterlimit:10;}
	.st10{clip-path:url(#SVGID_16_);fill:none;stroke:#565656;stroke-width:2;stroke-miterlimit:10;}
	.st11{clip-path:url(#SVGID_18_);fill:none;stroke:#565656;stroke-width:2;stroke-miterlimit:10;}
	.st12{clip-path:url(#SVGID_20_);fill:#010101;fill-opacity:0;}
	.st13{clip-path:url(#SVGID_22_);fill:none;stroke:#565656;stroke-width:2;stroke-miterlimit:10;}
	.st14{fill:none;stroke:#565656;stroke-linecap:square;stroke-miterlimit:10;}
	.st15{clip-path:url(#SVGID_24_);fill:#565656;}
	.st16{clip-path:url(#SVGID_26_);fill:none;stroke:#565656;stroke-width:2;stroke-miterlimit:10;}
	.st17{clip-path:url(#SVGID_28_);fill:none;stroke:#565656;stroke-width:2;stroke-miterlimit:10;}
	.st18{clip-path:url(#SVGID_30_);fill:none;stroke:#565656;stroke-width:2;stroke-miterlimit:10;}
	.st19{fill:#686969;}
	.st20{clip-path:url(#SVGID_32_);fill:#D8D9D8;fill-opacity:0;}
	.st21{clip-path:url(#SVGID_34_);fill:none;stroke:#565656;stroke-width:2;stroke-miterlimit:10;}
	.st22{fill:none;stroke:#565656;stroke-linecap:square;stroke-miterlimit:10;stroke-dasharray:1,3,1,3;}
	.st23{clip-path:url(#SVGID_36_);fill:none;stroke:#565656;stroke-width:2;stroke-miterlimit:10;}
</style>
<g>
	<g>
		<defs>
			<circle id="SVGID_1_" cx="-275.1" cy="397.2" r="10"/>
		</defs>
		<clipPath id="SVGID_2_">
			<use xlink:href="#SVGID_1_"  style="overflow:visible;"/>
		</clipPath>
		<rect x="-290.1" y="382.2" class="st0" width="30" height="30"/>
	</g>
</g>
<circle class="st1" cx="-275.1" cy="397.2" r="10"/>
<circle class="st1" cx="-275.1" cy="397.2" r="12"/>
<circle class="st2" cx="-275.1" cy="448" r="12"/>
<g>
	<g>
		<defs>
			<circle id="SVGID_3_" cx="-193.6" cy="543.9" r="10"/>
		</defs>
		<clipPath id="SVGID_4_">
			<use xlink:href="#SVGID_3_"  style="overflow:visible;"/>
		</clipPath>
		<rect x="-208.6" y="528.9" class="st3" width="30" height="30"/>
	</g>
</g>
<circle class="st4" cx="-193.6" cy="543.9" r="10"/>
<g>
	<g>
		<defs>
			<circle id="SVGID_5_" cx="-193.5" cy="472" r="6"/>
		</defs>
		<clipPath id="SVGID_6_">
			<use xlink:href="#SVGID_5_"  style="overflow:visible;"/>
		</clipPath>
		<rect x="-204.5" y="461" class="st5" width="22" height="22"/>
	</g>
</g>
<circle class="st2" cx="-193.5" cy="472" r="6"/>
<g>
	<g>
		<defs>
			<rect id="SVGID_7_" x="-203.5" y="461.9" width="20" height="20"/>
		</defs>
		<clipPath id="SVGID_8_">
			<use xlink:href="#SVGID_7_"  style="overflow:visible;"/>
		</clipPath>
		
			<rect x="-203.4" y="462" transform="matrix(0.7071 0.7071 -0.7071 0.7071 277.1055 275.0128)" class="st6" width="20" height="20"/>
	</g>
</g>
<g>
	<g>
		<defs>
			<circle id="SVGID_9_" cx="-193.2" cy="507.8" r="6"/>
		</defs>
		<clipPath id="SVGID_10_">
			<use xlink:href="#SVGID_9_"  style="overflow:visible;"/>
		</clipPath>
		<rect x="-204.2" y="496.8" class="st7" width="22" height="22"/>
	</g>
</g>
<circle class="st2" cx="-193.2" cy="507.8" r="6"/>
<g>
	<g>
		<defs>
			<circle id="SVGID_11_" cx="-193.2" cy="507.8" r="4"/>
		</defs>
		<clipPath id="SVGID_12_">
			<use xlink:href="#SVGID_11_"  style="overflow:visible;"/>
		</clipPath>
		<rect x="-202.2" y="498.8" class="st8" width="18" height="18"/>
	</g>
</g>
<circle class="st2" cx="-193.2" cy="507.8" r="4"/>
<g>
	<g>
		<defs>
			<rect id="SVGID_13_" x="-203.1" y="497.9" width="20" height="20"/>
		</defs>
		<clipPath id="SVGID_14_">
			<use xlink:href="#SVGID_13_"  style="overflow:visible;"/>
		</clipPath>
		
			<rect x="-203.1" y="497.9" transform="matrix(0.7071 0.7071 -0.7071 0.7071 302.5921 285.3284)" class="st9" width="20" height="20"/>
	</g>
</g>
<g>
	<g>
		<defs>
			<rect id="SVGID_15_" x="-202.4" y="362" width="20" height="20"/>
		</defs>
		<clipPath id="SVGID_16_">
			<use xlink:href="#SVGID_15_"  style="overflow:visible;"/>
		</clipPath>
		
			<rect x="-202.4" y="362" transform="matrix(0.7071 0.7071 -0.7071 0.7071 206.7074 245.0033)" class="st10" width="20" height="20"/>
	</g>
</g>
<g>
	<g>
		<defs>
			<path id="SVGID_17_" d="M-205.6,293.3c0-1.7,1.3-3,3-3h18c1.7,0,3,1.3,3,3v18c0,1.7-1.3,3-3,3h-18c-1.7,0-3-1.3-3-3V293.3z"/>
		</defs>
		<clipPath id="SVGID_18_">
			<use xlink:href="#SVGID_17_"  style="overflow:visible;"/>
		</clipPath>
		<path class="st11" d="M-205.6,293.3c0-1.7,1.3-3,3-3h18c1.7,0,3,1.3,3,3v18c0,1.7-1.3,3-3,3h-18c-1.7,0-3-1.3-3-3V293.3z"/>
	</g>
</g>
<g>
	<g>
		<defs>
			<rect id="SVGID_19_" x="-200.6" y="296.4" width="14" height="12"/>
		</defs>
		<clipPath id="SVGID_20_">
			<use xlink:href="#SVGID_19_"  style="overflow:visible;"/>
		</clipPath>
		<rect x="-200.6" y="296.4" class="st12" width="14" height="12"/>
	</g>
</g>
<g>
	<g>
		<defs>
			<rect id="SVGID_21_" x="-200.6" y="296.4" width="14" height="12"/>
		</defs>
		<clipPath id="SVGID_22_">
			<use xlink:href="#SVGID_21_"  style="overflow:visible;"/>
		</clipPath>
		<rect x="-200.6" y="296.4" class="st13" width="14" height="12"/>
	</g>
</g>
<line class="st14" x1="-200.1" y1="304.9" x2="-187.1" y2="304.9"/>
<line class="st14" x1="-197.3" y1="307.9" x2="-197.3" y2="296.9"/>
<g>
	<g>
		<defs>
			<rect id="SVGID_23_" x="-200.6" y="296.4" width="14" height="5"/>
		</defs>
		<clipPath id="SVGID_24_">
			<use xlink:href="#SVGID_23_"  style="overflow:visible;"/>
		</clipPath>
		<rect x="-200.6" y="296.4" class="st15" width="14" height="5"/>
	</g>
</g>
<g>
	<g>
		<defs>
			<rect id="SVGID_25_" x="-200.6" y="296.4" width="14" height="5"/>
		</defs>
		<clipPath id="SVGID_26_">
			<use xlink:href="#SVGID_25_"  style="overflow:visible;"/>
		</clipPath>
		<rect x="-200.6" y="296.4" class="st16" width="14" height="5"/>
	</g>
</g>
<g>
	<g>
		<defs>
			<path id="SVGID_27_" d="M-204.8,329.8c0-1.7,1.3-3,3-3h18c1.7,0,3,1.3,3,3v18c0,1.7-1.3,3-3,3h-18c-1.7,0-3-1.3-3-3V329.8z"/>
		</defs>
		<clipPath id="SVGID_28_">
			<use xlink:href="#SVGID_27_"  style="overflow:visible;"/>
		</clipPath>
		<path class="st17" d="M-204.8,329.8c0-1.7,1.3-3,3-3h18c1.7,0,3,1.3,3,3v18c0,1.7-1.3,3-3,3h-18c-1.7,0-3-1.3-3-3V329.8z"/>
	</g>
</g>
<path class="st2" d="M-198.9,336.6c0-1,0.9-1.9,1.3-2.4c0.4-0.5,1.8-1.3,1.8-1.3h9c0,0-3.2,2.4-3.2,3.7c0,1.6,2.2,3.2,2.2,3.2
	s1,1.2,1,2.2c0,0.7-1,2.7-1,2.7h-10.6c0,0,2.6-2.1,2.5-3.5c0-0.6-1.1-1.5-1.8-2.4C-197.9,338.4-198.9,337.4-198.9,336.6z"/>
<line class="st14" x1="-196" y1="335.4" x2="-191.7" y2="335.4"/>
<line class="st14" x1="-196" y1="337.4" x2="-191.7" y2="337.4"/>
<line class="st14" x1="-193.9" y1="342.4" x2="-189.5" y2="342.4"/>
<line class="st14" x1="-193.9" y1="340.4" x2="-189.5" y2="340.4"/>
<g>
	<g>
		<defs>
			<rect id="SVGID_29_" x="-202.4" y="393.9" width="20" height="20"/>
		</defs>
		<clipPath id="SVGID_30_">
			<use xlink:href="#SVGID_29_"  style="overflow:visible;"/>
		</clipPath>
		
			<rect x="-202.4" y="393.9" transform="matrix(0.7071 0.7071 -0.7071 0.7071 229.2392 254.3218)" class="st18" width="20" height="20"/>
	</g>
</g>
<g>
	<path class="st19" d="M-196.8,407.7l3.4-4.7l-3.3-4.4h1.9l2.6,3.5l2.4-3.5h1.6l-3.1,4.6l3.4,4.4h-1.9l-2.7-3.6l-2.6,3.6
		L-196.8,407.7L-196.8,407.7z"/>
</g>
<g>
	<g>
		<defs>
			<rect id="SVGID_31_" x="-203.1" y="428.1" width="20" height="20"/>
		</defs>
		<clipPath id="SVGID_32_">
			<use xlink:href="#SVGID_31_"  style="overflow:visible;"/>
		</clipPath>
		
			<rect x="-203.1" y="428.2" transform="matrix(0.7071 0.7071 -0.7071 0.7071 253.2516 264.8996)" class="st20" width="20" height="20"/>
	</g>
</g>
<g>
	<g>
		<defs>
			<rect id="SVGID_33_" x="-203.1" y="428.1" width="20" height="20"/>
		</defs>
		<clipPath id="SVGID_34_">
			<use xlink:href="#SVGID_33_"  style="overflow:visible;"/>
		</clipPath>
		
			<rect x="-203.1" y="428.2" transform="matrix(0.7071 0.7071 -0.7071 0.7071 253.2516 264.8996)" class="st21" width="20" height="20"/>
	</g>
</g>
<g>
	<path class="st19" d="M-193.7,443v-4.6h-4.6v-1.3h4.6v-4.6h1.3v4.6h4.6v1.3h-4.6v4.6H-193.7z"/>
</g>
<line class="st14" x1="-190.7" y1="571.9" x2="-190.7" y2="590.5"/>
<line class="st14" x1="-185.7" y1="571.9" x2="-190.7" y2="571.9"/>
<line class="st14" x1="-185.7" y1="591.3" x2="-190.7" y2="591.3"/>
<line class="st22" x1="-191" y1="581.8" x2="-204.2" y2="590.9"/>
<path class="st19" d="M-196.1,622.7l4.9-4.9c0.1-0.1,0.2-0.1,0.4-0.1c0.1,0,0.3,0,0.4,0.1c0.1,0.1,0.1,0.2,0.1,0.4v4.9
	c0,0.1,0,0.3-0.1,0.4s-0.2,0.1-0.4,0.1h-4.9c-0.1,0-0.3,0-0.4-0.1c-0.1-0.1-0.1-0.2-0.1-0.4C-196.3,622.9-196.2,622.8-196.1,622.7z"
	/>
<g>
	<g>
		<defs>
			<path id="SVGID_35_" d="M-205.6,259.7c0-1.7,1.3-3,3-3h18c1.7,0,3,1.3,3,3v18c0,1.7-1.3,3-3,3h-18c-1.7,0-3-1.3-3-3V259.7z"/>
		</defs>
		<clipPath id="SVGID_36_">
			<use xlink:href="#SVGID_35_"  style="overflow:visible;"/>
		</clipPath>
		<path class="st23" d="M-205.6,259.7c0-1.7,1.3-3,3-3h18c1.7,0,3,1.3,3,3v18c0,1.7-1.3,3-3,3h-18c-1.7,0-3-1.3-3-3V259.7z"/>
	</g>
</g>
<path class="st19" d="M-187.7,272.9c0,0.7-0.2,1.2-0.6,1.6c-0.4,0.4-0.9,0.6-1.6,0.6h-7.3c-0.7,0-1.2-0.2-1.6-0.6
	c-0.4-0.4-0.6-0.9-0.6-1.6c0-0.3,0-0.6,0-0.9c0-0.3,0.1-0.6,0.1-0.9c0-0.3,0.1-0.6,0.2-0.9c0.1-0.3,0.2-0.6,0.4-0.8
	c0.2-0.3,0.3-0.5,0.5-0.7c0.2-0.2,0.4-0.3,0.7-0.4c0.3-0.1,0.6-0.2,0.9-0.2c0.1,0,0.2,0.1,0.4,0.2s0.4,0.3,0.6,0.4
	c0.2,0.1,0.5,0.3,0.9,0.4c0.4,0.1,0.7,0.2,1.1,0.2c0.4,0,0.7-0.1,1.1-0.2c0.4-0.1,0.7-0.3,0.9-0.4c0.2-0.1,0.4-0.3,0.6-0.4
	s0.3-0.2,0.4-0.2c0.3,0,0.7,0.1,0.9,0.2c0.3,0.1,0.5,0.3,0.7,0.4c0.2,0.2,0.4,0.4,0.5,0.7c0.2,0.3,0.3,0.5,0.4,0.8
	c0.1,0.3,0.2,0.6,0.2,0.9c0,0.3,0.1,0.6,0.1,0.9C-187.8,272.4-187.7,272.6-187.7,272.9z M-191.4,263.2c0.6,0.6,0.9,1.4,0.9,2.3
	s-0.3,1.6-0.9,2.3c-0.6,0.7-1.4,0.9-2.3,0.9c-0.9,0-1.6-0.3-2.3-0.9c-0.6-0.6-0.9-1.4-0.9-2.3s0.3-1.6,0.9-2.3
	c0.6-0.6,1.4-0.9,2.3-0.9C-192.8,262.3-192,262.6-191.4,263.2z"/>
</svg>
