<?xml version="1.0" encoding="utf-8"?>
<!-- Generator: Adobe Illustrator 19.1.0, SVG Export Plug-In . SVG Version: 6.00 Build 0)  -->
<svg version="1.1" id="Layer_1" xmlns="http://www.w3.org/2000/svg" xmlns:xlink="http://www.w3.org/1999/xlink" x="0px" y="0px"
	 viewBox="-290 382.4 29.8 29.6" style="enable-background:new -290 382.4 29.8 29.6;" xml:space="preserve">
<style type="text/css">
	.st0{clip-path:url(#SVGID_2_);fill:#FFFFFF;fill-opacity:0;}
	.st1{fill:none;stroke:#555555;stroke-miterlimit:10;}
	.st2{fill:none;stroke:#565656;stroke-miterlimit:10;}
	.st3{fill:#555555;}
	.st4{fill:none;stroke:#565656;stroke-linecap:square;stroke-miterlimit:10;}
	.st5{fill:none;stroke:#565656;stroke-width:4;stroke-miterlimit:10;}
	.st6{clip-path:url(#SVGID_4_);fill:#FFFFFF;fill-opacity:0;}
	.st7{clip-path:url(#SVGID_6_);fill:none;stroke:#565656;stroke-width:2;stroke-miterlimit:10;}
	.st8{clip-path:url(#SVGID_8_);fill:#FFFFFF;fill-opacity:0;}
	.st9{clip-path:url(#SVGID_10_);fill:#FFFFFF;fill-opacity:0;}
	.st10{clip-path:url(#SVGID_12_);fill:none;stroke:#565656;stroke-width:2;stroke-miterlimit:10;}
	.st11{clip-path:url(#SVGID_14_);fill:none;stroke:#565656;stroke-width:2;stroke-miterlimit:10;}
	.st12{fill:#686969;}
	.st13{clip-path:url(#SVGID_16_);fill:#D8D9D8;fill-opacity:0;}
	.st14{clip-path:url(#SVGID_18_);fill:none;stroke:#565656;stroke-width:2;stroke-miterlimit:10;}
	.st15{fill:none;stroke:#565656;stroke-linecap:square;stroke-miterlimit:10;stroke-dasharray:1,3,1,3;}
	.st16{fill:#ED621B;}
	.st17{fill:none;stroke:#4E9626;stroke-miterlimit:10;}
	.st18{fill:#5EA332;}
	.st19{fill:none;stroke:#ED621B;stroke-miterlimit:10;}
	.st20{fill:#565656;}
	.st21{fill:#555655;}
</style>
<g>
	<g>
		<g>
			<g>
				<defs>
					<circle id="SVGID_1_" cx="-573.2" cy="531.4" r="10"/>
				</defs>
				<clipPath id="SVGID_2_">
					<use xlink:href="#SVGID_1_"  style="overflow:visible;"/>
				</clipPath>
				<rect x="-588.2" y="516.4" class="st0" width="30" height="30"/>
			</g>
		</g>
	</g>
</g>
<circle class="st1" cx="-573.2" cy="531.4" r="10"/>
<circle class="st1" cx="-573.2" cy="531.4" r="12"/>
<circle class="st2" cx="-573.2" cy="502.1" r="12"/>
<path class="st2" d="M-534.5,497.3c0-1,0.9-1.9,1.3-2.4c0.4-0.5,1.8-1.3,1.8-1.3h9c0,0-3.2,2.4-3.2,3.7c0,1.6,2.2,3.2,2.2,3.2
	s1,1.2,1,2.2c0,0.7-1,2.7-1,2.7H-534c0,0,2.6-2.1,2.5-3.5c0-0.6-1.1-1.5-1.8-2.4C-533.5,499.1-534.5,498.1-534.5,497.3z"/>
<path class="st3" d="M-568.1,565.1c0,0.7-0.2,1.2-0.6,1.6c-0.4,0.4-0.9,0.6-1.6,0.6h-7.3c-0.7,0-1.2-0.2-1.6-0.6s-0.6-0.9-0.6-1.6
	c0-0.3,0-0.6,0-0.9c0-0.3,0.1-0.6,0.1-0.9s0.1-0.6,0.2-0.9c0.1-0.3,0.2-0.6,0.4-0.8c0.2-0.3,0.3-0.5,0.5-0.7
	c0.2-0.2,0.4-0.3,0.7-0.4c0.3-0.1,0.6-0.2,0.9-0.2c0.1,0,0.2,0.1,0.4,0.2c0.2,0.1,0.4,0.3,0.6,0.4c0.2,0.1,0.5,0.3,0.9,0.4
	c0.4,0.1,0.7,0.2,1.1,0.2c0.4,0,0.7-0.1,1.1-0.2c0.4-0.1,0.7-0.3,0.9-0.4c0.2-0.1,0.4-0.3,0.6-0.4c0.2-0.1,0.3-0.2,0.4-0.2
	c0.3,0,0.7,0.1,0.9,0.2c0.3,0.1,0.5,0.3,0.7,0.4c0.2,0.2,0.4,0.4,0.5,0.7c0.2,0.3,0.3,0.5,0.4,0.8c0.1,0.3,0.2,0.6,0.2,0.9
	s0.1,0.6,0.1,0.9C-568.2,564.6-568.1,564.8-568.1,565.1z M-571.8,555.4c0.6,0.6,0.9,1.4,0.9,2.3c0,0.9-0.3,1.6-0.9,2.3
	c-0.6,0.7-1.4,0.9-2.3,0.9c-0.9,0-1.6-0.3-2.3-0.9c-0.6-0.6-0.9-1.4-0.9-2.3s0.3-1.6,0.9-2.3c0.6-0.6,1.4-0.9,2.3-0.9
	C-573.2,554.5-572.4,554.8-571.8,555.4z"/>
<path class="st1" d="M-565.1,572.8h-17.5c-1.7,0-3-1.3-3-3V552c0-1.6,1.3-3,3-3h17.5c1.6,0,3,1.4,3,3v17.8
	C-562.1,571.5-563.5,572.8-565.1,572.8z"/>
<path class="st1" d="M-505.3,474.1h-17.5c-1.6,0-3-1.4-3-3v-17.8c0-1.6,1.4-3,3-3h17.5c1.7,0,3,1.4,3,3v17.8
	C-502.3,472.8-503.7,474.1-505.3,474.1z"/>
<path class="st1" d="M-565.4,602.4h-17.5c-1.7,0-3-1.3-3-3v-17.8c0-1.6,1.3-3,3-3h17.5c1.6,0,3,1.4,3,3v17.8
	C-562.4,601.1-563.7,602.4-565.4,602.4z"/>
<g>
	<rect x="-580.7" y="584.3" class="st1" width="13.1" height="12.5"/>
	<rect x="-580.9" y="584.3" class="st3" width="13.4" height="5.2"/>
	<line class="st1" x1="-580.3" y1="593" x2="-568.1" y2="593"/>
	<line class="st1" x1="-576.7" y1="584.3" x2="-576.7" y2="596.4"/>
</g>
<g>
	<line class="st4" x1="-532.2" y1="496.6" x2="-528.1" y2="496.6"/>
	<line class="st4" x1="-532.2" y1="498.9" x2="-528.1" y2="498.9"/>
	<line class="st4" x1="-530.2" y1="501.3" x2="-526.1" y2="501.3"/>
	<line class="st4" x1="-530.2" y1="503.6" x2="-526.1" y2="503.6"/>
</g>
<circle class="st5" cx="-484.8" cy="644.6" r="10"/>
<g>
	<g>
		<g>
			<g>
				<g>
					<defs>
						<circle id="SVGID_3_" cx="-483.2" cy="570.2" r="6"/>
					</defs>
					<clipPath id="SVGID_4_">
						<use xlink:href="#SVGID_3_"  style="overflow:visible;"/>
					</clipPath>
					<rect x="-494.2" y="559.2" class="st6" width="22" height="22"/>
				</g>
			</g>
		</g>
	</g>
</g>
<circle class="st2" cx="-483.2" cy="570.2" r="6"/>
<g>
	<g>
		<g>
			<g>
				<g>
					<defs>
						
							<rect id="SVGID_5_" x="-493.2" y="560.2" transform="matrix(-0.7071 -0.7071 0.7071 -0.7071 -1228.1095 631.7231)" width="20" height="20"/>
					</defs>
					<clipPath id="SVGID_6_">
						<use xlink:href="#SVGID_5_"  style="overflow:visible;"/>
					</clipPath>
					
						<rect x="-493.1" y="560.2" transform="matrix(-0.7071 -0.7071 0.7071 -0.7071 -1227.8682 631.8232)" class="st7" width="20" height="20"/>
				</g>
			</g>
		</g>
	</g>
</g>
<g>
	<g>
		<g>
			<g>
				<g>
					<defs>
						<circle id="SVGID_7_" cx="-482.9" cy="606" r="6"/>
					</defs>
					<clipPath id="SVGID_8_">
						<use xlink:href="#SVGID_7_"  style="overflow:visible;"/>
					</clipPath>
					<rect x="-493.9" y="595" class="st8" width="22" height="22"/>
				</g>
			</g>
		</g>
	</g>
</g>
<circle class="st2" cx="-482.9" cy="606" r="6"/>
<g>
	<g>
		<g>
			<g>
				<g>
					<defs>
						<circle id="SVGID_9_" cx="-482.9" cy="606" r="4"/>
					</defs>
					<clipPath id="SVGID_10_">
						<use xlink:href="#SVGID_9_"  style="overflow:visible;"/>
					</clipPath>
					<rect x="-491.9" y="597" class="st9" width="18" height="18"/>
				</g>
			</g>
		</g>
	</g>
</g>
<circle class="st2" cx="-482.9" cy="606" r="4"/>
<g>
	<g>
		<g>
			<g>
				<g>
					<defs>
						
							<rect id="SVGID_11_" x="-492.8" y="596.1" transform="matrix(-0.7071 -0.7071 0.7071 -0.7071 -1252.6946 693.3373)" width="20" height="20"/>
					</defs>
					<clipPath id="SVGID_12_">
						<use xlink:href="#SVGID_11_"  style="overflow:visible;"/>
					</clipPath>
					
						<rect x="-492.8" y="596.2" transform="matrix(-0.7071 -0.7071 0.7071 -0.7071 -1252.8654 693.408)" class="st10" width="20" height="20"/>
				</g>
			</g>
		</g>
	</g>
</g>
<g>
	<g>
		<g>
			<g>
				<g>
					<defs>
						
							<rect id="SVGID_13_" x="-492.1" y="492.1" transform="matrix(-0.7071 -0.7071 0.7071 -0.7071 -1178.0592 516.1912)" width="20" height="20"/>
					</defs>
					<clipPath id="SVGID_14_">
						<use xlink:href="#SVGID_13_"  style="overflow:visible;"/>
					</clipPath>
					
						<rect x="-492.1" y="492.1" transform="matrix(-0.7071 -0.7071 0.7071 -0.7071 -1178.0592 516.1912)" class="st11" width="20" height="20"/>
				</g>
			</g>
		</g>
	</g>
</g>
<g>
	<path class="st12" d="M-486.5,505.9l3.4-4.7l-3.3-4.4h1.9l2.6,3.5l2.4-3.5h1.6l-3.1,4.6l3.4,4.4h-1.9l-2.7-3.6l-2.6,3.6
		L-486.5,505.9L-486.5,505.9z"/>
</g>
<g>
	<g>
		<g>
			<g>
				<g>
					<defs>
						
							<rect id="SVGID_15_" x="-492.9" y="526.4" transform="matrix(-0.7071 -0.7071 0.7071 -0.7071 -1203.6289 574.2034)" width="20" height="20"/>
					</defs>
					<clipPath id="SVGID_16_">
						<use xlink:href="#SVGID_15_"  style="overflow:visible;"/>
					</clipPath>
					
						<rect x="-492.9" y="526.4" transform="matrix(-0.7071 -0.7071 0.7071 -0.7071 -1203.6289 574.2034)" class="st13" width="20" height="20"/>
				</g>
			</g>
		</g>
	</g>
</g>
<g>
	<g>
		<g>
			<g>
				<g>
					<defs>
						
							<rect id="SVGID_17_" x="-492.9" y="526.4" transform="matrix(-0.7071 -0.7071 0.7071 -0.7071 -1203.6289 574.2034)" width="20" height="20"/>
					</defs>
					<clipPath id="SVGID_18_">
						<use xlink:href="#SVGID_17_"  style="overflow:visible;"/>
					</clipPath>
					
						<rect x="-492.9" y="526.4" transform="matrix(-0.7071 -0.7071 0.7071 -0.7071 -1203.6289 574.2034)" class="st14" width="20" height="20"/>
				</g>
			</g>
		</g>
	</g>
</g>
<g>
	<path class="st12" d="M-483.4,541.2v-4.6h-4.6v-1.3h4.6v-4.6h1.3v4.6h4.6v1.3h-4.6v4.6H-483.4z"/>
</g>
<g>
	<line class="st4" x1="-481.9" y1="667" x2="-481.9" y2="685.5"/>
	<line class="st4" x1="-476.9" y1="667" x2="-481.9" y2="667"/>
	<line class="st4" x1="-476.9" y1="686.3" x2="-481.9" y2="686.3"/>
	<line class="st15" x1="-482.2" y1="676.8" x2="-495.4" y2="686"/>
</g>
<path class="st12" d="M-485.8,720.9l4.9-4.9c0.1-0.1,0.2-0.1,0.4-0.1c0.1,0,0.3,0,0.4,0.1c0.1,0.1,0.1,0.2,0.1,0.4v4.9
	c0,0.1,0,0.3-0.1,0.4c-0.1,0.1-0.2,0.1-0.4,0.1h-4.9c-0.1,0-0.3,0-0.4-0.1s-0.1-0.2-0.1-0.4C-486,721.1-485.9,721-485.8,720.9z"/>
<path class="st3" d="M-577.2,738.4l4.9-4.9c0.1-0.1,0.2-0.1,0.4-0.1c0.1,0,0.3,0,0.4,0.1c0.1,0.1,0.1,0.2,0.1,0.4v4.9
	c0,0.1,0,0.3-0.1,0.4c-0.1,0.1-0.2,0.1-0.4,0.1h-4.9c-0.1,0-0.3,0-0.4-0.1c-0.1-0.1-0.1-0.2-0.1-0.4
	C-577.4,738.7-577.3,738.5-577.2,738.4z"/>
<rect x="-583.9" y="672.2" transform="matrix(0.7071 0.7071 -0.7071 0.7071 313.5496 605.9318)" class="st1" width="18.6" height="18.6"/>
<rect x="-583.7" y="642.3" transform="matrix(0.7071 0.7071 -0.7071 0.7071 292.5262 597.0372)" class="st1" width="18.6" height="18.6"/>
<line class="st1" x1="-568.8" y1="651.6" x2="-580.1" y2="651.6"/>
<line class="st1" x1="-574.4" y1="657.3" x2="-574.4" y2="645.9"/>
<rect x="-583.4" y="612.7" transform="matrix(0.7071 0.7071 -0.7071 0.7071 271.6231 588.1514)" class="st1" width="18.6" height="18.6"/>
<line class="st1" x1="-570.2" y1="617.9" x2="-578.2" y2="625.9"/>
<line class="st1" x1="-570.2" y1="625.9" x2="-578.2" y2="617.9"/>
<rect x="-529.7" y="523.1" transform="matrix(0.7071 0.7071 -0.7071 0.7071 224.0442 523.9163)" class="st1" width="18.6" height="18.6"/>
<line class="st1" x1="-516.4" y1="528.4" x2="-524.4" y2="536.4"/>
<line class="st1" x1="-516.4" y1="536.4" x2="-524.4" y2="528.4"/>
<rect x="-724" y="512.2" transform="matrix(0.7071 0.7071 -0.7071 0.7071 159.408 658.0651)" class="st1" width="18.6" height="18.6"/>
<line class="st1" x1="-710.7" y1="517.4" x2="-718.7" y2="525.4"/>
<line class="st1" x1="-710.7" y1="525.4" x2="-718.7" y2="517.4"/>
<circle class="st1" cx="-574.7" cy="681.4" r="5.4"/>
<circle class="st1" cx="-574.7" cy="681.4" r="3.4"/>
<circle class="st5" cx="-574.6" cy="710.8" r="10.4"/>
<g>
	<path class="st16" d="M-638.7,540.7l5.9-8.1l-5.7-7.6h3.3l4.5,6l4.1-6h2.8l-5.3,7.9l5.9,7.6h-3.3l-4.7-6.2l-4.5,6.2h-2.9
		L-638.7,540.7L-638.7,540.7z"/>
</g>
<circle class="st17" cx="-684.5" cy="616.5" r="25"/>
<path class="st18" d="M-669.5,607.7v18.2c0,0.7-0.3,1.4-0.8,1.9s-1.2,0.8-1.9,0.8h-24.6c-0.7,0-1.4-0.3-1.9-0.8s-0.8-1.2-0.8-1.9
	v-18.2c0-0.7,0.3-1.4,0.8-1.9s1.2-0.8,1.9-0.8h24.6c0.7,0,1.4,0.3,1.9,0.8C-669.7,606.4-669.5,607-669.5,607.7z M-671.6,608.4
	c0,0,0-0.1,0-0.2c0-0.1,0-0.2,0-0.2c0-0.1,0-0.1,0-0.2c0-0.1,0-0.2-0.1-0.2c0,0-0.1-0.1-0.1-0.2c0-0.1-0.1-0.1-0.2-0.1
	c-0.1,0-0.1,0-0.2,0h-24.6c-0.1,0-0.3,0.1-0.4,0.2c-0.1,0.1-0.2,0.2-0.2,0.4c0,1.9,0.8,3.5,2.5,4.8c2.2,1.7,4.4,3.5,6.7,5.3
	c0.1,0.1,0.3,0.2,0.6,0.5c0.3,0.3,0.6,0.5,0.8,0.6c0.2,0.1,0.4,0.3,0.7,0.5c0.3,0.2,0.6,0.4,0.8,0.5c0.3,0.1,0.5,0.2,0.7,0.2l0,0
	l0,0c0.2,0,0.5-0.1,0.7-0.2c0.3-0.1,0.5-0.3,0.8-0.5c0.3-0.2,0.6-0.4,0.7-0.5c0.2-0.1,0.4-0.4,0.8-0.6c0.3-0.3,0.5-0.4,0.6-0.5
	c2.3-1.8,4.6-3.6,6.7-5.3c0.6-0.5,1.2-1.1,1.7-1.9C-671.9,609.8-671.6,609-671.6,608.4z M-671.6,626v-12.9c-0.4,0.4-0.7,0.8-1.2,1.1
	c-3,2.3-5.4,4.2-7.1,5.7c-0.6,0.5-1,0.9-1.4,1.1c-0.4,0.3-0.8,0.5-1.4,0.8c-0.6,0.3-1.2,0.4-1.7,0.4l0,0l0,0c-0.5,0-1.1-0.1-1.7-0.4
	c-0.6-0.3-1.1-0.5-1.4-0.8c-0.4-0.3-0.8-0.6-1.4-1.1c-1.8-1.5-4.1-3.4-7.1-5.7c-0.4-0.3-0.8-0.7-1.2-1.1V626c0,0.1,0.1,0.3,0.2,0.4
	c0.1,0.1,0.2,0.2,0.4,0.2h24.6c0.1,0,0.3-0.1,0.4-0.2C-671.7,626.2-671.6,626.1-671.6,626z"/>
<rect x="-648.4" y="515.8" transform="matrix(-0.7071 -0.7071 0.7071 -0.7071 -1454.0249 463.501)" class="st19" width="34.7" height="34.1"/>
<rect x="-780" y="410.5" transform="matrix(0.7071 0.7071 -0.7071 0.7071 71.1018 667.8901)" class="st19" width="18.6" height="18.6"/>
<line class="st19" x1="-766.7" y1="415.8" x2="-774.7" y2="423.8"/>
<line class="st19" x1="-766.7" y1="423.8" x2="-774.7" y2="415.8"/>
<g>
	<rect x="-278.5" y="393.5" class="st20" width="4.3" height="0.8"/>
	<rect x="-278.5" y="395.7" class="st20" width="4.3" height="0.8"/>
	<rect x="-277.5" y="397.9" class="st20" width="4.3" height="0.8"/>
	<rect x="-276.5" y="400.1" class="st20" width="4.3" height="0.8"/>
	<path class="st20" d="M-271.4,403.4h-10.9l1.2-0.7c0.8-0.4,1.4-1.1,1.7-1.9c0.2-0.9-0.4-1.9-1.1-2.9s-1.5-2.4-1.2-3.8
		c0.5-1.3,1.4-2.3,2.7-2.9l0.1-0.1h10.9l-1.3,0.7c-1,0.5-1.9,1.3-2.3,2.4c-0.2,1,0.4,2,1.1,3.1c0.7,1.1,1.5,2.3,1.2,3.5
		c-0.3,1.1-1.1,1.9-2.1,2.4L-271.4,403.4z M-279.7,402.6h8c0.8-0.4,1.4-1.1,1.6-1.9c0.2-0.9-0.4-1.9-1-2.9c-0.6-1-1.5-2.4-1.2-3.8
		c0.3-0.9,0.8-1.6,1.6-2.1h-8c-1,0.5-1.8,1.3-2.2,2.3c-0.2,1,0.4,2,1.1,3.1c0.7,1.1,1.4,2.3,1.2,3.5
		C-278.7,401.5-279.1,402.1-279.7,402.6z"/>
</g>
<path class="st1" d="M-266.4,409.1h-17.5c-1.7,0-3-1.3-3-3v-17.8c0-1.6,1.3-3,3-3h17.5c1.6,0,3,1.4,3,3v17.8
	C-263.4,407.8-264.7,409.1-266.4,409.1z"/>
<path class="st21" d="M-264.9,435.6l-0.9-2.4c-0.3-0.8-0.9-1.5-1.6-2c-1.7,1.5-4.2,1.5-5.9,0c-0.7,0.5-1.3,1.2-1.6,2l-0.9,2.4
	c-0.5,1-0.1,2.1,0.8,2.6c0.3,0.2,0.7,0.2,1.1,0.2h7c1.1,0.1,2-0.7,2.1-1.7C-264.7,436.3-264.8,435.9-264.9,435.6z"/>
<circle class="st21" cx="-270.4" cy="427.9" r="3.5"/>
</svg>
