<?xml version="1.0" encoding="utf-8"?>
<!-- Generator: Adobe Illustrator 19.1.0, SVG Export Plug-In . SVG Version: 6.00 Build 0)  -->
<svg version="1.1" id="Layer_1" xmlns="http://www.w3.org/2000/svg" xmlns:xlink="http://www.w3.org/1999/xlink" x="0px" y="0px"
	 viewBox="-279 371 52 52" style="enable-background:new -279 371 52 52;" xml:space="preserve">
<style type="text/css">
	.st0{fill:none;stroke:#4E9626;}
	.st1{enable-background:new    ;}
	.st2{fill:#4E9626;}
</style>
<title>Group 22 Copy</title>
<desc>Created with Sketch.</desc>
<g id="Group-22-Copy" transform="translate(1.000000, 1.000000)">
	<circle id="Oval-43" class="st0" cx="-254" cy="396" r="25"/>
	<g class="st1">
		<path class="st2" d="M-239,387.2v18.2c0,0.7-0.3,1.4-0.8,1.9c-0.5,0.5-1.2,0.8-1.9,0.8h-24.6c-0.7,0-1.4-0.3-1.9-0.8
			c-0.5-0.5-0.8-1.2-0.8-1.9v-18.2c0-0.7,0.3-1.4,0.8-1.9c0.5-0.5,1.2-0.8,1.9-0.8h24.6c0.7,0,1.4,0.3,1.9,0.8
			C-239.3,385.9-239,386.5-239,387.2z M-241.1,387.9c0,0,0-0.1,0-0.2s0-0.2,0-0.2c0,0,0-0.1,0-0.2c0-0.1,0-0.2,0-0.2
			c0,0-0.1-0.1-0.1-0.2c0-0.1-0.1-0.1-0.2-0.1c-0.1,0-0.1,0-0.2,0h-24.6c-0.1,0-0.3,0.1-0.4,0.2c-0.1,0.1-0.2,0.2-0.2,0.4
			c0,1.9,0.8,3.5,2.5,4.8c2.2,1.7,4.4,3.5,6.7,5.3c0.1,0.1,0.3,0.2,0.6,0.5s0.6,0.5,0.8,0.6c0.2,0.1,0.4,0.3,0.7,0.5
			c0.3,0.2,0.6,0.4,0.8,0.5s0.5,0.2,0.7,0.2h0h0c0.2,0,0.5,0,0.7-0.2c0.3-0.1,0.5-0.3,0.8-0.5c0.3-0.2,0.6-0.4,0.7-0.5
			c0.2-0.1,0.4-0.4,0.8-0.6c0.3-0.3,0.5-0.4,0.6-0.5c2.3-1.8,4.6-3.6,6.7-5.3c0.6-0.5,1.2-1.1,1.7-1.9
			C-241.4,389.3-241.1,388.5-241.1,387.9z M-241.1,405.5v-12.9c-0.4,0.4-0.7,0.8-1.2,1.1c-3,2.3-5.4,4.2-7.1,5.7
			c-0.6,0.5-1,0.9-1.4,1.1s-0.8,0.5-1.4,0.8c-0.6,0.3-1.2,0.4-1.7,0.4h0h0c-0.5,0-1.1-0.1-1.7-0.4c-0.6-0.3-1.1-0.5-1.4-0.8
			c-0.4-0.3-0.8-0.6-1.4-1.1c-1.8-1.5-4.1-3.4-7.1-5.7c-0.4-0.3-0.8-0.7-1.2-1.1v12.9c0,0.1,0.1,0.3,0.2,0.4
			c0.1,0.1,0.2,0.2,0.4,0.2h24.6c0.1,0,0.3-0.1,0.4-0.2C-241.2,405.7-241.1,405.6-241.1,405.5z"/>
	</g>
</g>
</svg>
