<?xml version="1.0" encoding="utf-8"?>
<!-- Generator: Adobe Illustrator 19.1.0, SVG Export Plug-In . SVG Version: 6.00 Build 0)  -->
<svg version="1.1" id="Layer_1" xmlns="http://www.w3.org/2000/svg" xmlns:xlink="http://www.w3.org/1999/xlink" x="0px" y="0px"
	 viewBox="-292 384 26 26" style="enable-background:new -292 384 26 26;" xml:space="preserve">
<style type="text/css">
	.st0{fill:#565656;}
	.st1{fill:#555555;}
	.st2{fill:none;stroke:#555555;stroke-miterlimit:10;}
	.st3{fill:#555655;}
</style>
<title>script</title>
<rect x="-226.4" y="441.8" class="st0" width="4.3" height="0.8"/>
<rect x="-226.4" y="444" class="st0" width="4.3" height="0.8"/>
<rect x="-225.4" y="446.3" class="st0" width="4.3" height="0.8"/>
<rect x="-224.4" y="448.5" class="st0" width="4.3" height="0.8"/>
<path class="st0" d="M-219.2,451.7h-10.9l1.2-0.7c0.8-0.4,1.4-1.1,1.7-1.9c0.2-0.9-0.4-1.9-1.1-2.9c-0.7-1-1.5-2.4-1.2-3.8
	c0.5-1.3,1.4-2.3,2.7-2.9l0.1-0.1h10.9l-1.3,0.7c-1,0.5-1.9,1.3-2.3,2.4c-0.2,1,0.4,2,1.1,3.1c0.7,1.1,1.4,2.3,1.2,3.5
	C-217.4,450.2-218.1,451.1-219.2,451.7L-219.2,451.7z M-227.5,450.9h8c0.8-0.4,1.4-1.1,1.7-1.9c0.2-0.9-0.4-1.9-1-2.9
	c-0.7-1-1.5-2.4-1.2-3.8c0.3-0.9,0.8-1.6,1.6-2.1h-8c-1,0.5-1.8,1.3-2.1,2.3c-0.2,1,0.4,2,1.1,3.1c0.7,1.1,1.4,2.3,1.2,3.5
	C-226.6,449.9-227,450.5-227.5,450.9z"/>
<path class="st1" d="M-379,415.6c0,0.7-0.2,1.2-0.6,1.6c-0.4,0.4-0.9,0.6-1.6,0.6h-7.3c-0.7,0-1.2-0.2-1.6-0.6
	c-0.4-0.4-0.6-0.9-0.6-1.6c0-0.3,0-0.6,0-0.9c0-0.3,0.1-0.6,0.1-0.9s0.1-0.6,0.2-0.9c0.1-0.3,0.2-0.6,0.4-0.8
	c0.2-0.3,0.3-0.5,0.5-0.7s0.4-0.3,0.7-0.4c0.3-0.1,0.6-0.2,0.9-0.2c0.1,0,0.2,0.1,0.4,0.2s0.4,0.3,0.6,0.4c0.2,0.1,0.5,0.3,0.9,0.4
	s0.7,0.2,1.1,0.2c0.4,0,0.7-0.1,1.1-0.2s0.7-0.3,0.9-0.4c0.2-0.1,0.4-0.3,0.6-0.4s0.3-0.2,0.4-0.2c0.3,0,0.7,0.1,0.9,0.2
	c0.3,0.1,0.5,0.3,0.7,0.4c0.2,0.2,0.4,0.4,0.5,0.7c0.2,0.3,0.3,0.5,0.4,0.8c0.1,0.3,0.2,0.6,0.2,0.9s0.1,0.6,0.1,0.9
	C-379.1,415.1-379,415.3-379,415.6z M-382.7,405.9c0.6,0.6,0.9,1.4,0.9,2.3c0,0.9-0.3,1.6-0.9,2.3c-0.6,0.7-1.4,0.9-2.3,0.9
	s-1.6-0.3-2.3-0.9c-0.6-0.6-0.9-1.4-0.9-2.3c0-0.9,0.3-1.6,0.9-2.3c0.6-0.6,1.4-0.9,2.3-0.9C-384.1,405-383.3,405.3-382.7,405.9z"/>
<path class="st2" d="M-376,423.3h-17.5c-1.7,0-3-1.3-3-3v-17.8c0-1.6,1.3-3,3-3h17.5c1.6,0,3,1.4,3,3v17.8
	C-373,422-374.4,423.3-376,423.3z"/>
<path class="st2" d="M-376.3,452.9h-17.5c-1.7,0-3-1.3-3-3v-17.8c0-1.6,1.3-3,3-3h17.5c1.6,0,3,1.4,3,3v17.8
	C-373.3,451.6-374.6,452.9-376.3,452.9z"/>
<g>
	<rect x="-391.6" y="434.8" class="st2" width="13.1" height="12.5"/>
	<rect x="-391.8" y="434.8" class="st1" width="13.4" height="5.2"/>
	<line class="st2" x1="-391.2" y1="443.5" x2="-379" y2="443.5"/>
	<line class="st2" x1="-387.6" y1="434.8" x2="-387.6" y2="446.9"/>
</g>
<g>
	<path class="st1" d="M-236.9,449.2l-0.9-2.4c-0.3-0.8-0.9-1.5-1.6-2c-1.7,1.5-4.2,1.5-5.9,0c-0.7,0.5-1.3,1.2-1.6,2l-0.9,2.4
		c-0.5,1-0.1,2.1,0.8,2.6c0.3,0.2,0.7,0.2,1.1,0.2h7c1.1,0.1,2-0.7,2.1-1.7C-236.7,449.9-236.8,449.5-236.9,449.2z"/>
	<circle class="st1" cx="-242.4" cy="441.5" r="3.5"/>
</g>
<path class="st3" d="M-287.1,440.6c-1.3,0-2.5,0.5-3.4,1.4l-1.7-1.7v4.4h4.4l-1.7-1.7c1.4-1.4,3.7-1.3,5.1,0.2
	c1.4,1.4,1.3,3.7-0.2,5.1s-3.7,1.3-5.1-0.2c-0.1-0.1-0.2-0.2-0.3-0.4l-1.1,0.8c1.6,2.3,4.7,2.8,7,1.2c2.3-1.6,2.8-4.7,1.2-7
	C-283.9,441.4-285.4,440.6-287.1,440.6z"/>
<g>
	<path class="st3" d="M-273.3,401.7l-2.9-2.9c1.5-2.1,1.1-5-1-6.6c-2.1-1.5-5-1.1-6.6,1c-1.5,2.1-1.1,5,1,6.6
		c0.8,0.6,1.8,0.9,2.8,0.9c1,0,2-0.3,2.8-0.9l2.9,2.9L-273.3,401.7z M-280,399.3c-1.8,0-3.3-1.4-3.4-3.3c0-1.8,1.4-3.3,3.3-3.4
		c1.8,0,3.3,1.4,3.4,3.3c0,0,0,0.1,0,0.1C-276.7,397.8-278.2,399.3-280,399.3z"/>
	<polygon class="st3" points="-279.5,393.9 -280.5,393.9 -280.5,395.5 -282.1,395.5 -282.1,396.5 -280.5,396.5 -280.5,398.2 
		-279.5,398.2 -279.5,396.5 -277.8,396.5 -277.8,395.5 -279.5,395.5 	"/>
</g>
</svg>
